<svg width="373" height="296" viewBox="0 0 373 296" fill="none" xmlns="http://www.w3.org/2000/svg">
<path fill-rule="evenodd" clip-rule="evenodd" d="M285.899 296C277.957 295.85 270.014 294.65 262.372 292.249C256.227 290.449 251.132 286.098 248.435 280.397C233.449 250.092 238.095 214.086 260.274 188.732C269.715 177.93 276.458 165.628 280.504 152.126C282.153 146.725 283.352 141.024 283.951 135.473C286.349 115.069 282.602 94.8161 272.862 76.663C260.274 53.4091 239.443 36.3062 214.267 28.8049C205.126 26.1044 195.685 24.6041 186.243 24.6041C176.653 24.6041 167.212 26.1044 158.07 28.8049C132.744 36.4562 111.914 53.4091 99.4755 76.663C89.7347 94.8161 85.8384 115.069 88.386 135.473C89.1353 141.174 90.1843 146.725 91.8328 152.126C95.8789 165.628 102.772 178.08 112.064 188.732C134.243 214.086 138.888 249.942 123.902 280.247C121.055 285.948 115.96 290.299 109.666 292.249C102.173 294.5 94.2305 295.85 86.288 295.85C88.5359 294.2 90.7837 292.549 92.7319 290.599C118.358 266.445 118.508 231.939 93.4812 204.785C77.1466 186.181 66.9563 163.228 63.9591 138.323C60.8121 112.969 65.6075 87.6148 77.746 64.961C93.3313 35.856 119.407 14.7025 150.877 5.25089C162.266 1.8003 173.955 0.150025 185.644 0H186.393C198.082 0.150025 209.771 1.8003 221.16 5.25089C252.781 14.7025 278.706 35.856 294.291 64.961C306.43 87.4648 311.225 112.969 308.078 138.323C305.081 163.078 294.891 186.031 278.406 204.785C253.38 231.939 253.68 266.445 279.156 290.599C281.404 292.699 283.502 294.35 285.899 296ZM203.63 217.836C204.529 232.539 209.324 246.491 217.267 258.493C212.921 228.188 221.912 196.833 241.993 173.279C249.187 165.177 254.282 155.726 257.429 145.374C263.273 126.171 261.175 105.167 251.734 87.7644C242.293 70.0614 226.408 57.1593 207.076 51.3083C200.333 49.358 193.289 48.1577 186.096 48.1577H185.497C178.453 48.1577 171.26 49.208 164.517 51.3083C145.335 57.0093 129.45 70.0614 119.859 87.7644C110.568 105.317 108.47 126.321 114.164 145.374C117.311 155.726 122.406 165.177 129.6 173.279C150.13 196.683 159.122 228.038 154.776 258.493C162.718 246.491 167.514 232.539 168.413 217.836C169.912 195.633 162.569 174.029 147.882 157.226C134.095 141.323 131.398 118.07 141.438 99.4664C147.882 87.4644 158.672 78.6129 171.71 74.7122C176.355 73.362 181.151 72.6118 186.096 72.6118C190.892 72.6118 195.687 73.362 200.333 74.7122C213.371 78.7629 224.16 87.4644 230.604 99.4664C240.645 118.07 238.097 141.323 224.16 157.226C209.474 174.029 202.131 195.483 203.63 217.836ZM286.943 247.991H286.944C297.284 247.991 307.175 243.64 314.068 235.539C315.867 233.589 317.365 231.938 318.714 230.138C328.605 217.686 336.847 203.884 342.991 189.181C344.19 186.031 344.19 182.58 342.691 179.43C341.193 176.429 338.345 174.029 335.049 172.979C333.85 172.678 332.651 172.528 331.452 172.528C326.507 172.528 322.161 175.379 320.213 179.88C314.968 192.482 307.924 204.334 299.382 214.986C298.684 215.859 297.935 216.733 297.135 217.666L297.135 217.667L297.131 217.671L297.129 217.673C296.558 218.34 295.96 219.037 295.336 219.786C287.693 228.188 283.647 238.09 283.647 247.841C284.846 247.991 285.895 247.991 286.943 247.991ZM295.18 273.797C301.773 279.949 310.315 283.399 319.457 283.399C327.549 283.399 335.492 280.549 341.935 275.748C344.783 273.197 347.48 270.497 350.028 267.646C350.876 266.615 351.701 265.632 352.5 264.679L352.503 264.676C353.679 263.273 354.802 261.934 355.872 260.595C361.117 254.144 365.913 247.243 370.409 240.192C372.357 237.341 372.806 233.741 371.907 230.44C371.008 227.14 368.91 224.439 365.763 222.789C363.965 221.889 362.166 221.439 360.218 221.439C356.022 221.439 351.976 223.689 349.728 227.29C345.832 233.441 341.486 239.592 336.84 245.293C336.359 245.863 335.877 246.445 335.388 247.037L335.385 247.04C334.201 248.473 332.973 249.958 331.595 251.444C321.705 262.846 307.918 269.897 292.932 271.397C293.531 272.147 294.429 273.046 295.178 273.796L295.18 273.797ZM85.0785 247.99C74.7383 247.99 64.9974 243.489 58.2538 235.838C57.9971 235.534 57.7439 235.234 57.4939 234.938C56.1386 233.331 54.8734 231.83 53.6082 230.437C43.5677 217.985 35.3255 204.183 29.3312 189.48C27.9824 186.33 28.1323 182.879 29.6309 179.729C31.1295 176.578 33.8269 174.178 37.1238 173.277C38.3227 172.977 39.5216 172.677 40.7205 172.677C45.6658 172.677 50.0117 175.528 51.9598 180.029C57.2049 192.631 64.2482 204.483 72.7901 215.134C73.989 216.635 75.1879 218.135 76.6865 219.785C84.3292 228.187 88.3754 238.088 88.3754 247.84C87.3267 247.99 86.1282 247.99 85.0794 247.99H85.0785ZM30.3848 275.595C36.6788 280.696 44.6213 283.396 52.7137 283.396C61.8551 283.396 70.5468 279.945 77.1406 273.794L77.141 273.794C77.8902 273.044 78.6393 272.294 79.3885 271.394C64.5525 269.894 50.6157 262.843 40.725 251.441C39.576 250.113 38.5312 248.838 37.5291 247.615C36.8323 246.765 36.1561 245.939 35.48 245.14C30.8344 239.439 26.4884 233.438 22.5921 227.136C20.3442 223.536 16.2981 221.285 12.102 221.285C10.1539 221.285 8.35555 221.736 6.55725 222.636C3.56009 224.286 1.31225 226.986 0.413098 230.287C-0.486053 233.588 0.113381 237.038 1.91168 240.039C6.25757 247.09 11.2029 253.991 16.448 260.442C18.2463 262.693 20.0445 264.943 22.2924 267.493C24.6901 270.344 27.5375 273.044 30.3848 275.595Z" fill="url(#paint0_linear_833_5199)"/>
<defs>
<linearGradient id="paint0_linear_833_5199" x1="187.045" y1="294.991" x2="187.045" y2="8.46986e-06" gradientUnits="userSpaceOnUse">
<stop stop-color="#66DDD7"/>
<stop offset="1" stop-color="#8A43FF"/>
</linearGradient>
</defs>
</svg>
